HIERARCHY
ROOT joint_Root
{
  OFFSET 0 0 0
  CHANNELS 6 Xposition Yposition Zposition Zrotation Xrotation Yrotation
  JOINT Hips
  {
    OFFSET 0 93.9241 -3
    CHANNELS 6 Xposition Yposition Zposition Zrotation Xrotation Yrotation
    JOINT Spine
    {
      OFFSET 15.7357 0 0
      CHANNELS 6 Xposition Yposition Zposition Zrotation Xrotation Yrotation
      JOINT Chest
      {
        OFFSET 8.98455 -0.406207 0
        CHANNELS 6 Xposition Yposition Zposition Zrotation Xrotation Yrotation
        JOINT Neck
        {
          OFFSET 16.3773 0 0
          CHANNELS 6 Xposition Yposition Zposition Zrotation Xrotation Yrotation
          JOINT Head
          {
            OFFSET 6.45672 0 0
            CHANNELS 6 Xposition Yposition Zposition Zrotation Xrotation Yrotation
            End Site
            {
              OFFSET 0 0 0
            }
          }
        }
        JOINT Shoulder_L
        {
          OFFSET 12.9942 -0.242716 4.98039
          CHANNELS 6 Xposition Yposition Zposition Zrotation Xrotation Yrotation
          JOINT UpperArm_L
          {
            OFFSET 5.34809 0 0
            CHANNELS 6 Xposition Yposition Zposition Zrotation Xrotation Yrotation
            JOINT LowerArm_L
            {
              OFFSET 24.3286 1.87007e-05 0
              CHANNELS 6 Xposition Yposition Zposition Zrotation Xrotation Yrotation
              JOINT Hand_L
              {
                OFFSET 22.2916 0 0
                CHANNELS 6 Xposition Yposition Zposition Zrotation Xrotation Yrotation
                End Site
                {
                  OFFSET 0 0 0
                }
              }
            }
          }
        }
        JOINT Shoulder_R
        {
          OFFSET 12.9945 -0.242716 -4.98039
          CHANNELS 6 Xposition Yposition Zposition Zrotation Xrotation Yrotation
          JOINT UpperArm_R
          {
            OFFSET -5.34813 0 0
            CHANNELS 6 Xposition Yposition Zposition Zrotation Xrotation Yrotation
            JOINT LowerArm_R
            {
              OFFSET -24.3289 0.000322201 0
              CHANNELS 6 Xposition Yposition Zposition Zrotation Xrotation Yrotation
              JOINT Hand_R
              {
                OFFSET -22.2915 -0.000108084 0
                CHANNELS 6 Xposition Yposition Zposition Zrotation Xrotation Yrotation
                End Site
                {
                  OFFSET 0 0 0
                }
              }
            }
          }
        }
      }
    }
    JOINT UpperLeg_L
    {
      OFFSET -2.19248 -6.46944 0
      CHANNELS 6 Xposition Yposition Zposition Zrotation Xrotation Yrotation
      JOINT LowerLeg_L
      {
        OFFSET 39.0811 0 -1.23785e-05
        CHANNELS 6 Xposition Yposition Zposition Zrotation Xrotation Yrotation
        JOINT Foot_L
        {
          OFFSET 40.9854 0 -1.26872e-05
          CHANNELS 6 Xposition Yposition Zposition Zrotation Xrotation Yrotation
          JOINT Toes_L
          {
            OFFSET 11.7543 0 0
            CHANNELS 6 Xposition Yposition Zposition Zrotation Xrotation Yrotation
            End Site
            {
              OFFSET 0 0 0
            }
          }
        }
      }
    }
    JOINT UpperLeg_R
    {
      OFFSET -2.19251 6.46944 0
      CHANNELS 6 Xposition Yposition Zposition Zrotation Xrotation Yrotation
      JOINT LowerLeg_R
      {
        OFFSET -39.0811 -0.00228153 -0.0401928
        CHANNELS 6 Xposition Yposition Zposition Zrotation Xrotation Yrotation
        JOINT Foot_R
        {
          OFFSET -40.9854 0 0
          CHANNELS 6 Xposition Yposition Zposition Zrotation Xrotation Yrotation
          JOINT Toes_R
          {
            OFFSET -11.7543 0 0
            CHANNELS 6 Xposition Yposition Zposition Zrotation Xrotation Yrotation
            End Site
            {
              OFFSET 0 0 0
            }
          }
        }
      }
    }
  }
}
MOTION
Frames:	7
Frame Time:	0.0333333
0 0 0 0 0 -0 3.74957 91.289 -16.9026 82.0066 -38.7995 -11.5829 15.7357 5.1072e-06 -5.51765e-07 106.906 82.1805 -108.612 8.98455 -0.406207 -4.3199e-07 7.28447 4.53859 -3.69905 16.3773 -1.3905e-06 -6.99897e-07 12.0693 5.67033 2.88058 6.45672 -1.25837e-06 -1.02172e-07 13.2014 5.679 8.76558 12.9942 -0.242716 4.98039 -89.7161 -1.14614 -91.0891 5.34809 -7.22636e-06 -6.2814e-07 -66.9675 -6.50922 10.5764 24.3286 1.87007e-05 4.90208e-06 9.70696 11.3296 -41.0473 22.2916 -9.88446e-07 4.63217e-06 6.04719 5.16783 3.51331 12.9945 -0.242716 -4.98039 89.4384 4.24478 -97.4563 -5.34813 -1.25947e-06 -3.79883e-06 -70.0963 -1.736 11.3296 -24.3289 0.000322201 -8.65921e-06 6.48853 11.7803 -29.1253 -22.2915 -0.000108084 -4.47941e-06 12.4037 5.43341 -4.05666 -2.19248 -6.46944 -1.22534e-07 -176.661 -15.907 -30.5933 39.0811 -6.73843e-06 -1.23785e-05 0.0115374 -0.0413427 27.9637 40.9854 -6.48686e-06 -1.26872e-05 0.589593 -16.3134 -54.785 11.7543 -2.30145e-07 3.05095e-06 0.0877728 -0.0989795 -17.5415 -2.19251 6.46944 -1.45247e-06 -163.961 11.0695 162.497 -39.0811 -0.00228153 -0.0401928 0.116299 -0.276178 19.4449 -40.9854 7.72618e-06 5.99936e-06 7.29732 -10.3783 -60.6525 -11.7543 -5.6619e-06 -5.58687e-06 -0.144049 0.0963899 -16.5727 
0 0 0 0 0 -0 3.53518 91.222 -16.6716 81.8525 -38.9545 -11.1086 15.7357 5.1072e-06 -5.51765e-07 107.613 82.4421 -109.173 8.98455 -0.406207 -4.3199e-07 6.72197 4.57343 -3.38647 16.3773 -1.3905e-06 -6.99897e-07 11.3999 5.61227 2.64553 6.45672 -1.25837e-06 -1.02172e-07 13.1233 5.5969 8.64924 12.9942 -0.242716 4.98039 -89.7177 -1.14163 -91.1094 5.34809 -7.22636e-06 -6.2814e-07 -66.9717 -6.48618 10.6967 24.3286 1.87007e-05 4.90208e-06 9.51301 11.3412 -40.4356 22.2916 -9.88446e-07 4.63217e-06 5.96862 5.1699 3.46289 12.9945 -0.242716 -4.98039 89.4415 4.21058 -97.437 -5.34813 -1.25947e-06 -3.79883e-06 -70.111 -1.88057 11.5111 -24.3289 0.000322201 -8.65921e-06 6.39848 11.8383 -28.6664 -22.2915 -0.000108084 -4.47941e-06 12.312 5.43169 -3.99704 -2.19248 -6.46944 -1.22534e-07 -176.373 -16.2533 -30.1492 39.0811 -6.73843e-06 -1.23785e-05 0.0160217 -0.0474888 28.7516 40.9854 -6.48686e-06 -1.26872e-05 0.369693 -16.1005 -55.4308 11.7543 -2.30145e-07 3.05095e-06 0.0895839 -0.101067 -17.5618 -2.19251 6.46944 -1.45247e-06 -164.015 11.1146 163.091 -39.0811 -0.00228153 -0.0401928 0.121269 -0.280155 19.9353 -40.9854 7.72618e-06 5.99936e-06 7.18813 -10.3663 -61.1359 -11.7543 -5.6619e-06 -5.58687e-06 -0.14381 0.0963616 -16.5726 
0 0 0 0 0 -0 3.31489 91.1674 -16.4307 81.7432 -39.1084 -10.6211 15.7357 5.1072e-06 -5.51765e-07 108.236 82.7133 -109.664 8.98455 -0.406207 -4.3199e-07 6.14913 4.56813 -3.09966 16.3773 -1.3905e-06 -6.99897e-07 10.6769 5.50322 2.40654 6.45672 -1.25837e-06 -1.02172e-07 13.0018 5.66168 8.58243 12.9942 -0.242716 4.98039 -89.7191 -1.13603 -91.1082 5.34809 -7.22636e-06 -6.2814e-07 -66.9685 -6.48318 10.8434 24.3286 1.87007e-05 4.90208e-06 9.36151 11.3832 -39.8713 22.2916 -9.88446e-07 4.63217e-06 5.78676 5.1666 3.54351 12.9945 -0.242716 -4.98039 89.4443 4.18297 -97.4268 -5.34813 -1.25947e-06 -3.79883e-06 -70.1546 -1.85901 11.6276 -24.3289 0.000322201 -8.65921e-06 6.2397 11.8395 -28.0573 -22.2915 -0.000108084 -4.47941e-06 12.2259 5.43101 -3.97359 -2.19248 -6.46944 -1.22534e-07 -176.118 -16.5822 -29.6522 39.0811 -6.73843e-06 -1.23785e-05 0.0174494 -0.0489373 29.4231 40.9854 -6.48686e-06 -1.26872e-05 0.164982 -15.9586 -56.0242 11.7543 -2.30145e-07 3.05095e-06 0.0891551 -0.100565 -17.5569 -2.19251 6.46944 -1.45247e-06 -164.102 11.0947 163.726 -39.0811 -0.00228153 -0.0401928 0.125547 -0.284004 20.3242 -40.9854 7.72618e-06 5.99936e-06 7.08126 -10.421 -61.5653 -11.7543 -5.6619e-06 -5.58687e-06 -0.134171 0.0899647 -16.5727 
0 0 0 0 0 -0 3.09234 91.1141 -16.1853 81.678 -39.2658 -10.1498 15.7357 5.1072e-06 -5.51765e-07 108.893 83.0052 -110.205 8.98455 -0.406207 -4.3199e-07 5.53696 4.54475 -2.84155 16.3773 -1.3905e-06 -6.99897e-07 9.92745 5.45291 2.21451 6.45672 -1.25837e-06 -1.02172e-07 12.8521 5.67288 8.55783 12.9942 -0.242716 4.98039 -89.7316 -1.08424 -91.0947 5.34809 -7.22636e-06 -6.2814e-07 -66.9648 -6.48384 11.0623 24.3286 1.87007e-05 4.90208e-06 9.24741 11.4454 -39.3684 22.2916 -9.88446e-07 4.63217e-06 5.70611 5.1688 3.49028 12.9945 -0.242716 -4.98039 89.4431 4.18986 -97.4221 -5.34813 -1.25947e-06 -3.79883e-06 -70.1967 -1.89762 11.7676 -24.3289 0.000322201 -8.65921e-06 6.07253 11.8364 -27.4175 -22.2915 -0.000108084 -4.47941e-06 11.9564 5.4286 -3.89061 -2.19248 -6.46944 -1.22534e-07 -175.877 -16.7871 -29.1616 39.0811 -6.73843e-06 -1.23785e-05 0.022557 -0.0552448 30.0475 40.9854 -6.48686e-06 -1.26872e-05 -0.0546183 -15.8842 -56.5976 11.7543 -2.30145e-07 3.05095e-06 0.0903986 -0.101992 -17.5707 -2.19251 6.46944 -1.45247e-06 -164.222 10.9538 164.319 -39.0811 -0.00228153 -0.0401928 0.130196 -0.288547 20.715 -40.9854 7.72618e-06 5.99936e-06 6.95323 -10.5986 -61.9838 -11.7543 -5.6619e-06 -5.58687e-06 -0.138345 0.0928445 -16.5727 
0 0 0 0 0 -0 2.87816 91.0725 -15.928 81.6506 -39.4096 -9.69009 15.7357 5.1072e-06 -5.51765e-07 109.648 83.3004 -110.85 8.98455 -0.406207 -4.3199e-07 4.91402 4.52648 -2.59794 16.3773 -1.3905e-06 -6.99897e-07 9.14589 5.40534 2.07208 6.45672 -1.25837e-06 -1.02172e-07 12.6944 5.65664 8.56137 12.9942 -0.242716 4.98039 -89.7505 -1.0083 -91.1003 5.34809 -7.22636e-06 -6.2814e-07 -66.9734 -6.3724 11.2836 24.3286 1.87007e-05 4.90208e-06 9.07305 11.4278 -38.868 22.2916 -9.88446e-07 4.63217e-06 5.72467 5.167 3.53331 12.9945 -0.242716 -4.98039 89.4376 4.23945 -97.4363 -5.34813 -1.25947e-06 -3.79883e-06 -70.2216 -1.9911 11.9379 -24.3289 0.000322201 -8.65921e-06 5.95937 11.9378 -26.7823 -22.2915 -0.000108084 -4.47941e-06 11.9075 5.42567 -3.79066 -2.19248 -6.46944 -1.22534e-07 -175.663 -16.9361 -28.6489 39.0811 -6.73843e-06 -1.23785e-05 0.0267788 -0.0608214 30.5723 40.9854 -6.48686e-06 -1.26872e-05 -0.267877 -15.8475 -57.1263 11.7543 -2.30145e-07 3.05095e-06 0.0908065 -0.102454 -17.5751 -2.19251 6.46944 -1.45247e-06 -164.39 10.8144 164.906 -39.0811 -0.00228153 -0.0401928 0.131649 -0.285387 21.0642 -40.9854 7.72618e-06 5.99936e-06 6.80662 -10.7239 -62.3871 -11.7543 -5.6619e-06 -5.58687e-06 -0.142861 0.0960843 -16.5727 
0 0 0 0 0 -0 2.68082 91.0435 -15.678 81.646 -39.5636 -9.25971 15.7357 5.1072e-06 -5.51765e-07 110.505 83.5777 -111.599 8.98455 -0.406207 -4.3199e-07 4.31988 4.52483 -2.35865 16.3773 -1.3905e-06 -6.99897e-07 8.27133 5.34667 1.98241 6.45672 -1.25837e-06 -1.02172e-07 12.466 5.63771 8.44671 12.9942 -0.242716 4.98039 -89.7847 -0.870939 -91.1115 5.34809 -7.22636e-06 -6.2814e-07 -66.9793 -6.25382 11.5163 24.3286 1.87007e-05 4.90208e-06 8.99514 11.4963 -38.4582 22.2916 -9.88446e-07 4.63217e-06 5.52425 5.16893 3.48666 12.9945 -0.242716 -4.98039 89.4298 4.27201 -97.3908 -5.34813 -1.25947e-06 -3.79883e-06 -70.2628 -2.06272 12.0541 -24.3289 0.000322201 -8.65921e-06 5.76458 11.8795 -26.1277 -22.2915 -0.000108084 -4.47941e-06 11.695 5.42625 -3.8105 -2.19248 -6.46944 -1.22534e-07 -175.497 -17.09 -28.1426 39.0811 -6.73843e-06 -1.23785e-05 0.0310991 -0.0664831 30.9816 40.9854 -6.48686e-06 -1.26872e-05 -0.448029 -15.8577 -57.5806 11.7543 -2.30145e-07 3.05095e-06 0.0827105 -0.0931841 -17.4855 -2.19251 6.46944 -1.45247e-06 -164.553 10.6046 165.491 -39.0811 -0.00228153 -0.0401928 0.133056 -0.284421 21.2967 -40.9854 7.72618e-06 5.99936e-06 6.66993 -10.9399 -62.7112 -11.7543 -5.6619e-06 -5.58687e-06 -0.135348 0.0910954 -16.5727 
0 0 0 0 0 -0 2.48526 91.0088 -15.4352 81.6371 -39.7174 -8.83897 15.7357 5.1072e-06 -5.51765e-07 111.436 83.8306 -112.42 8.98455 -0.406207 -4.3199e-07 3.76886 4.53747 -2.11706 16.3773 -1.3905e-06 -6.99897e-07 7.37014 5.30129 1.85695 6.45672 -1.25837e-06 -1.02172e-07 12.0894 5.60417 8.41281 12.9942 -0.242716 4.98039 -89.8191 -0.732167 -91.1184 5.34809 -7.22636e-06 -6.2814e-07 -67.0438 -5.98985 11.6955 24.3286 1.87007e-05 4.90208e-06 8.90786 11.5677 -38.012 22.2916 -9.88446e-07 4.63217e-06 5.48679 5.16936 3.47627 12.9945 -0.242716 -4.98039 89.4211 4.33138 -97.381 -5.34813 -1.25947e-06 -3.79883e-06 -70.2776 -2.24184 12.2258 -24.3289 0.000322201 -8.65921e-06 5.64196 11.8949 -25.6122 -22.2915 -0.000108084 -4.47941e-06 11.5254 5.4243 -3.74424 -2.19248 -6.46944 -1.22534e-07 -175.306 -17.212 -27.643 39.0811 -6.73843e-06 -1.23785e-05 0.0327576 -0.0675263 31.4154 40.9854 -6.48686e-06 -1.26872e-05 -0.646264 -15.8334 -58.0522 11.7543 -2.30145e-07 3.05095e-06 0.0875924 -0.0987637 -17.5395 -2.19251 6.46944 -1.45247e-06 -164.703 10.4488 166.048 -39.0811 -0.00228153 -0.0401928 0.135018 -0.284201 21.5608 -40.9854 7.72618e-06 5.99936e-06 6.53731 -11.1039 -63.0539 -11.7543 -5.6619e-06 -5.58687e-06 -0.138568 0.0933738 -16.5728 
